# xmcd
#
# Track frame offsets:
#	183
#	15518
#	27190
#	40995
#	58328
#	68208
#	80488
#	93813
#	108365
#	123723
#	134910
#	147360
#	160035
#	174203
#	186023
#	197908
#
# Disc length: 2865 seconds
#
# Revision: 1
# Processed by: cddbd v1.5.1PL2 Copyright (c) Steve Scherf et al.
# Submitted via: EasyCDDAExtractor 6.0.0.1
#
DISCID=df0b2f10
DTITLE=Johnny Lee - Country Music CM022
DYEAR=1999
DGENRE=Country
TTITLE0=Frisco
TTITLE1=Candy Store
TTITLE2=Saturday's Hero
TTITLE3=Daddy No. 2
TTITLE4=Red Sails In The Sunset # 22 ('76)
TTITLE5=How's His Memory
TTITLE6=Blueberry Hill
TTITLE7=Long Black Veil
TTITLE8=Country Party # 15 ('77)
TTITLE9=Apartment No. 9 (Instrumental)
TTITLE10=Victims Of The Pretty Things Of Life
TTITLE11=This Time
TTITLE12=Dear Alice
TTITLE13=Congratulations
TTITLE14=Rambling Rose # 37 ('77)
TTITLE15=Your Song
EXTD=
EXTT0=
EXTT1=
EXTT2=
EXTT3=
EXTT4=
EXTT5=
EXTT6=
EXTT7=
EXTT8=
EXTT9=
EXTT10=
EXTT11=
EXTT12=
EXTT13=
EXTT14=
EXTT15=
PLAYORDER=
